<svg id="Layer_1" data-name="Layer 1" xmlns="http://www.w3.org/2000/svg" viewBox="0 0 735.22 535.256">
  <g>
    <path d="M489.064,33.9C306.419-41.431,87.357,88.079,36.653,194.905-85.1,451.418,127.668,569.8,221.268,526.5c39.075-18.078,70.993-48.948,101.841-78.982a257.835,257.835,0,0,1,172.04-72.232c49.562-1.139,98.886,12.16,148.306,8.255s93.075-72.063,91.735-121.619C733.146,186.284,684.921,114.677,489.064,33.9Z" fill="#367cff" opacity="0.1"></path>
    <g>
      <g>
        <g>
          <g>
            <rect x="90.708" y="27.178" width="553.805" height="448.462" rx="29.687" fill="#fff"></rect>
            <path d="M614.826,476.572H120.394a30.653,30.653,0,0,1-30.618-30.619V56.865a30.653,30.653,0,0,1,30.618-30.619H614.826a30.653,30.653,0,0,1,30.618,30.619V445.953A30.653,30.653,0,0,1,614.826,476.572ZM120.394,28.109A28.788,28.788,0,0,0,91.639,56.865V445.953a28.788,28.788,0,0,0,28.755,28.756H614.826a28.788,28.788,0,0,0,28.755-28.756V56.865a28.788,28.788,0,0,0-28.755-28.756Z" fill="#292a2e"></path>
          </g>
          <path d="M644.513,56.868v56.294H90.71V56.868A29.685,29.685,0,0,1,120.4,27.175H614.828A29.69,29.69,0,0,1,644.513,56.868Z" fill="#367cff"></path>
          <path d="M645.513,114.162H89.711V56.868A30.722,30.722,0,0,1,120.4,26.175H614.828a30.723,30.723,0,0,1,30.685,30.693Zm-553.8-2h551.8V56.868a28.722,28.722,0,0,0-28.685-28.693H120.4A28.721,28.721,0,0,0,91.711,56.868Z" fill="#367cff"></path>
        </g>
        <g>
          <g>
            <rect x="186.073" y="21.71" width="69.261" height="27.704" rx="13.852" transform="translate(256.266 -185.141) rotate(90)" fill="#fff"></rect>
            <path d="M220.7,71.124A14.8,14.8,0,0,1,205.92,56.34V14.784a14.784,14.784,0,1,1,29.567,0V56.34A14.8,14.8,0,0,1,220.7,71.124Zm0-69.261a12.935,12.935,0,0,0-12.921,12.921V56.34a12.921,12.921,0,1,0,25.841,0V14.784A12.935,12.935,0,0,0,220.7,1.863Z" fill="#262626"></path>
          </g>
          <g>
            <rect x="479.886" y="21.71" width="69.261" height="27.704" rx="13.852" transform="translate(550.079 -478.955) rotate(90)" fill="#fff"></rect>
            <path d="M514.517,71.124A14.8,14.8,0,0,1,499.733,56.34V14.784a14.784,14.784,0,1,1,29.568,0V56.34A14.8,14.8,0,0,1,514.517,71.124Zm0-69.261A12.935,12.935,0,0,0,501.6,14.784V56.34a12.921,12.921,0,1,0,25.842,0V14.784A12.935,12.935,0,0,0,514.517,1.863Z" fill="#262626"></path>
          </g>
        </g>
      </g>
      <g opacity="0.08">
        <rect x="117.769" y="152.996" width="79.729" height="78.365" fill="#367cff"></rect>
        <rect x="117.769" y="253.152" width="79.729" height="78.365" fill="#367cff"></rect>
        <rect x="117.769" y="353.309" width="79.729" height="78.365" fill="#367cff"></rect>
        <rect x="222.751" y="152.996" width="79.729" height="78.365" fill="#367cff"></rect>
        <rect x="222.751" y="253.152" width="79.729" height="78.365" fill="#367cff"></rect>
        <rect x="326.676" y="152.996" width="79.729" height="78.365" fill="#367cff"></rect>
        <rect x="326.676" y="253.152" width="79.729" height="78.365" fill="#367cff"></rect>
        <rect x="433.542" y="152.996" width="79.729" height="78.365" fill="#367cff"></rect>
        <rect x="433.542" y="253.152" width="79.729" height="78.365" fill="#367cff"></rect>
        <rect x="222.751" y="353.309" width="79.729" height="78.365" fill="#367cff"></rect>
        <rect x="326.676" y="353.309" width="79.729" height="78.365" fill="#367cff"></rect>
        <rect x="537.722" y="152.996" width="79.729" height="78.365" fill="#367cff"></rect>
        <rect x="537.722" y="253.152" width="79.729" height="78.365" fill="#367cff"></rect>
      </g>
      <g>
        <g>
          <g>
            <circle cx="316.224" cy="252.535" r="14.988" fill="#292a2e"></circle>
            <circle cx="418.996" cy="252.535" r="14.988" fill="#292a2e"></circle>
          </g>
          <path d="M387.705,293.986h-40.19a1,1,0,0,1,0-2h40.19a1,1,0,1,1,0,2Z" fill="#262626"></path>
        </g>
        <g>
          <ellipse cx="300.763" cy="288.372" rx="13.37" ry="7.037" fill="#fff"></ellipse>
          <ellipse cx="434.457" cy="288.372" rx="13.37" ry="7.037" fill="#fff"></ellipse>
        </g>
        <g opacity="0.4">
          <ellipse cx="300.763" cy="288.372" rx="13.37" ry="7.037" fill="#367cff"></ellipse>
          <ellipse cx="434.457" cy="288.372" rx="13.37" ry="7.037" fill="#367cff"></ellipse>
        </g>
      </g>
    </g>
  </g>
</svg>